<?xml version="1.0" encoding="UTF-8"?>
<!DOCTYPE svg PUBLIC "-//W3C//DTD SVG 1.1//EN" "http://www.w3.org/Graphics/SVG/1.1/DTD/svg11.dtd">
<svg xmlns="http://www.w3.org/2000/svg" version="1.1" width="512px" height="512px" style="shape-rendering:geometricPrecision; text-rendering:geometricPrecision; image-rendering:optimizeQuality; fill-rule:evenodd; clip-rule:evenodd" xmlns:xlink="http://www.w3.org/1999/xlink">
<g><path style="opacity:0.985" fill="#000000" d="M 234.5,16.5 C 298.633,12.1015 355.633,29.7682 405.5,69.5C 293.833,181.833 181.833,293.833 69.5,405.5C 27.5747,352.858 10.408,292.858 18,225.5C 30.0135,144.532 71.5135,84.0324 142.5,44C 171.526,28.9159 202.192,19.7492 234.5,16.5 Z M 367.5,60.5 C 374.455,60.29 377.955,63.6233 378,70.5C 373.2,76.3017 368.033,81.8017 362.5,87C 353.895,89.7337 350.062,86.5671 351,77.5C 356.031,71.303 361.531,65.6364 367.5,60.5 Z M 331.5,96.5 C 339.662,96.4983 342.828,100.498 341,108.5C 335.833,113.667 330.667,118.833 325.5,124C 316.13,125.399 312.63,121.566 315,112.5C 320.395,106.936 325.895,101.603 331.5,96.5 Z M 296.5,132.5 C 304.383,133.859 306.883,138.192 304,145.5C 299.167,150.333 294.333,155.167 289.5,160C 279.951,161.457 276.451,157.624 279,148.5C 284.454,142.537 290.287,137.204 296.5,132.5 Z M 258.5,169.5 C 266.164,168.666 269.664,172 269,179.5C 264.2,185.302 259.033,190.802 253.5,196C 248.758,198.229 244.925,197.062 242,192.5C 241.333,190.5 241.333,188.5 242,186.5C 247.031,180.303 252.531,174.636 258.5,169.5 Z M 222.5,205.5 C 230.118,204.62 233.618,207.953 233,215.5C 228.2,221.302 223.033,226.802 217.5,232C 213.709,234.017 210.209,233.517 207,230.5C 205.578,227.97 205.245,225.303 206,222.5C 211.031,216.303 216.531,210.636 222.5,205.5 Z M 186.5,241.5 C 194.859,241.671 198.026,245.671 196,253.5C 191.167,258.333 186.333,263.167 181.5,268C 172.844,270.677 169.011,267.511 170,258.5C 175.031,252.303 180.531,246.636 186.5,241.5 Z M 150.5,277.5 C 158.662,277.498 161.828,281.498 160,289.5C 154.833,294.667 149.667,299.833 144.5,305C 135.13,306.399 131.63,302.566 134,293.5C 139.395,287.936 144.895,282.603 150.5,277.5 Z M 115.5,313.5 C 123.687,314.54 126.187,318.873 123,326.5C 117.548,332.794 111.381,338.128 104.5,342.5C 97.4982,340.497 95.3316,336.163 98,329.5C 103.454,323.537 109.287,318.204 115.5,313.5 Z M 80.5,349.5 C 87.4853,351.47 89.652,355.804 87,362.5C 81.5481,368.794 75.3814,374.128 68.5,378.5C 61.4982,376.497 59.3316,372.163 62,365.5C 67.5277,359.118 73.6944,353.785 80.5,349.5 Z"/></g>
<g><path style="opacity:0.892" fill="#000000" d="M 416.5,80.5 C 417.552,80.3505 418.552,80.5172 419.5,81C 423,84.5 426.5,88 430,91.5C 430.667,92.5 430.667,93.5 430,94.5C 318.167,206.333 206.333,318.167 94.5,430C 93.5,430.667 92.5,430.667 91.5,430C 88,426.5 84.5,423 81,419.5C 80.3333,418.5 80.3333,417.5 81,416.5C 193.035,304.632 304.868,192.632 416.5,80.5 Z"/></g>
<g><path style="opacity:0.984" fill="#000000" d="M 440.5,105.5 C 442.017,105.511 443.184,106.177 444,107.5C 496.043,178.436 508.043,255.769 480,339.5C 450.719,412.115 398.886,460.615 324.5,485C 245.382,506.241 173.049,492.575 107.5,444C 105.993,443.163 105.493,441.996 106,440.5C 217.701,328.965 329.201,217.299 440.5,105.5 Z M 441.5,132.5 C 449.204,133.914 451.704,138.247 449,145.5C 444.5,150 440,154.5 435.5,159C 425.527,162.024 421.694,158.524 424,148.5C 429.454,142.537 435.287,137.204 441.5,132.5 Z M 402.5,169.5 C 411.858,168.593 415.358,172.593 413,181.5C 408.167,186.333 403.333,191.167 398.5,196C 389.434,198.37 385.601,194.87 387,185.5C 392.37,180.298 397.536,174.965 402.5,169.5 Z M 367.5,205.5 C 375.905,205.71 379.071,209.71 377,217.5C 372.167,222.333 367.333,227.167 362.5,232C 353.376,234.549 349.543,231.049 351,221.5C 356.395,215.936 361.895,210.603 367.5,205.5 Z M 331.5,241.5 C 339.149,241.314 342.315,244.981 341,252.5C 336.533,257.968 331.7,263.135 326.5,268C 319.837,270.668 315.503,268.502 313.5,261.5C 318.443,253.89 324.443,247.223 331.5,241.5 Z M 295.5,277.5 C 304.35,277.864 307.184,282.197 304,290.5C 299.5,295 295,299.5 290.5,304C 280.511,307.007 276.677,303.507 279,293.5C 284.395,287.936 289.895,282.603 295.5,277.5 Z M 260.5,313.5 C 268.195,314.895 270.695,319.228 268,326.5C 263.5,331 259,335.5 254.5,340C 244.511,343.007 240.677,339.507 243,329.5C 248.454,323.537 254.287,318.204 260.5,313.5 Z M 221.5,350.5 C 229.65,349.16 233.483,352.493 233,360.5C 227.579,367.757 221.079,373.757 213.5,378.5C 207.583,377.093 205.083,373.427 206,367.5C 211.004,361.664 216.171,355.997 221.5,350.5 Z M 185.5,386.5 C 194.858,385.593 198.358,389.593 196,398.5C 191.167,403.333 186.333,408.167 181.5,413C 172.376,415.549 168.543,412.049 170,402.5C 175.37,397.298 180.536,391.965 185.5,386.5 Z M 150.5,422.5 C 158.149,422.314 161.315,425.981 160,433.5C 155.533,438.968 150.7,444.135 145.5,449C 137.577,451.748 133.41,448.914 133,440.5C 138.365,433.969 144.198,427.969 150.5,422.5 Z"/></g>
</svg>
