<?xml version="1.0" encoding="UTF-8"?>
<!DOCTYPE svg PUBLIC "-//W3C//DTD SVG 1.1//EN" "http://www.w3.org/Graphics/SVG/1.1/DTD/svg11.dtd">
<svg xmlns="http://www.w3.org/2000/svg" version="1.1" width="512px" height="512px" style="shape-rendering:geometricPrecision; text-rendering:geometricPrecision; image-rendering:optimizeQuality; fill-rule:evenodd; clip-rule:evenodd" xmlns:xlink="http://www.w3.org/1999/xlink">
<g><path style="opacity:0.939" fill="#000000" d="M 476.5,7.5 C 496.761,5.59249 505.595,14.5925 503,34.5C 495.066,45.7691 485.732,55.7691 475,64.5C 464.833,55.6667 455.333,46.1667 446.5,36C 455.423,25.2402 465.423,15.7402 476.5,7.5 Z"/></g>
<g><path style="opacity:0.94" fill="#000000" d="M 434.5,46.5 C 444.632,56.1312 454.632,65.9645 464.5,76C 452.292,88.5421 439.792,100.709 427,112.5C 416.833,103.667 407.333,94.1667 398.5,84C 410.327,71.3398 422.327,58.8398 434.5,46.5 Z"/></g>
<g><path style="opacity:0.944" fill="#000000" d="M 386.5,94.5 C 396.632,104.131 406.632,113.964 416.5,124C 405.833,134.667 395.167,145.333 384.5,156C 353.5,177.5 322.5,199 291.5,220.5C 291.167,220.167 290.833,219.833 290.5,219.5C 312,188.5 333.5,157.5 355,126.5C 365.702,115.965 376.202,105.298 386.5,94.5 Z"/></g>
<g><path style="opacity:0.982" fill="#000000" d="M 305.5,120.5 C 316.754,119.965 327.754,121.299 338.5,124.5C 309.913,166.008 281.08,207.341 252,248.5C 249.676,254.519 251.676,258.519 258,260.5C 259.5,260 261,259.5 262.5,259C 303.659,229.92 344.992,201.087 386.5,172.5C 389.868,183.248 391.035,194.248 390,205.5C 389.226,209.049 387.893,212.382 386,215.5C 292.194,310.306 198.027,404.806 103.5,499C 94.0367,504.564 84.3701,504.897 74.5,500C 53.6949,480.195 33.1949,460.029 13,439.5C 6.88163,430.418 5.88163,420.751 10,410.5C 103.806,315.694 197.973,221.194 292.5,127C 296.657,124.255 300.99,122.088 305.5,120.5 Z"/></g>
</svg>
